<?xml version="1.0" standalone="no"?><!DOCTYPE svg PUBLIC "-//W3C//DTD SVG 1.1//EN" "http://www.w3.org/Graphics/SVG/1.1/DTD/svg11.dtd"><svg t="1588213596468" class="icon" viewBox="0 0 1030 1024" version="1.1" xmlns="http://www.w3.org/2000/svg" p-id="2951" xmlns:xlink="http://www.w3.org/1999/xlink" width="201.171875" height="200"><defs><style type="text/css"></style></defs><path d="M530.330773 688.109001a44.528192 44.528192 0 0 1-23.451515-6.679229c-13.061603-8.015075-323.12625-202.009567-378.341209-452.554863a174.25366 174.25366 0 0 1 36.809972-148.427308A215.961734 215.961734 0 0 1 329.360197 0C400.753732 0 473.779968 45.418756 518.011306 107.906653 564.023772 45.715611 638.237426 0 709.185679 0A220.56298 220.56298 0 0 1 877.205392 84.158284a166.387013 166.387013 0 0 1 32.208726 146.349326c-72.284099 276.520075-344.499783 444.242934-356.22554 451.219017a44.528192 44.528192 0 0 1-22.857805 6.382374zM329.360197 89.056385a126.608494 126.608494 0 0 0-94.548195 47.051457 85.939412 85.939412 0 0 0-19.29555 73.471517C254.552834 387.09842 460.124656 541.759675 530.330773 590.146978 593.709233 545.321931 771.822003 405.503406 823.177852 207.798232a79.111755 79.111755 0 0 0-16.327004-69.315553A130.467604 130.467604 0 0 0 709.185679 89.056385c-59.370923 0-145.904044 72.432526-148.427308 143.677634a44.528192 44.528192 0 0 1-89.056385-1.484273v-2.226409C468.881867 158.223511 387.988984 89.056385 329.360197 89.056385z m537.010002 130.170749zM384.723583 838.762719C172.62096 838.762719 0 653.822293 0 426.580084a44.528192 44.528192 0 0 1 89.056385 0c0 178.11277 132.545586 323.12625 295.667198 323.12625a44.528192 44.528192 0 1 1 0 89.056385zM618.051312 824.95898a44.528192 44.528192 0 0 1 0-89.056385c178.11277 0 323.12625-132.545586 323.12625-295.518771a44.528192 44.528192 0 0 1 89.056385 0C1030.233947 653.080157 846.035657 824.95898 618.051312 824.95898z" fill="#727171" p-id="2952"></path><path d="M340.195391 750.151616m44.528192 0l0 0q44.528192 0 44.528193 44.528193l0 184.791999q0 44.528192-44.528193 44.528192l0 0q-44.528192 0-44.528192-44.528192l0-184.791999q0-44.528192 44.528192-44.528193Z" fill="#727171" p-id="2953"></path><path d="M573.523119 750.151616m44.528193 0l0 0q44.528192 0 44.528192 44.528193l0 184.791999q0 44.528192-44.528192 44.528192l0 0q-44.528192 0-44.528193-44.528192l0-184.791999q0-44.528192 44.528193-44.528193Z" fill="#727171" p-id="2954"></path></svg>